<svg xmlns="http://www.w3.org/2000/svg" width="420" height="440" viewBox="0 0 420 440"><defs><clipPath id="yurqa"><path d="M0 0h420v440H0z"/></clipPath></defs><g><g><g><path fill="#d8d8d8" d="M0 0h420v440H0z"/></g><g clip-path="url(#yurqa)"><g opacity=".62"><path fill="#fff" d="M210.5 285c47.77 0 86.5-45.22 86.5-101 0-77.353-38.728-101-86.5-101-47.774 0-86.5 23.647-86.5 101 0 55.78 38.727 101 86.5 101z"/></g><g opacity=".62"><path fill="#fff" d="M401.112 434.367L357.45 336.19a21.892 21.892 0 0 0-9.873-10.488l-67.763-35.21a4.372 4.372 0 0 0-4.647.391c-19.166 14.47-41.7 22.117-65.165 22.117-23.469 0-46.002-7.648-65.167-22.117a4.38 4.38 0 0 0-4.651-.39l-67.759 35.21a21.883 21.883 0 0 0-9.872 10.487l-43.664 98.178a21.679 21.679 0 0 0 1.651 20.721C24.582 461.296 31.423 465 38.841 465h342.317a21.768 21.768 0 0 0 18.303-9.913 21.682 21.682 0 0 0 1.651-20.72z"/></g></g></g></g></svg>