<svg xmlns="http://www.w3.org/2000/svg" width="110" height="142" viewBox="0 0 110 142"><defs><clipPath id="lbc1a"><path d="M0 94.64h109.193V142H0z"/></clipPath></defs><g><g><g><path fill="#ffd7af" d="M30 67.075s-4.377 4.442-6.502-6.14c-2.274-11.31-2.193-17.45 1.879-18.743 2.608-.828 3.355 1.288 3.355 1.288z"/></g><g><path fill="#eeb88e" d="M38 82.77v13.204a9.753 9.753 0 0 0 4.322 8.118c4.799 3.196 11.895 7.906 12.038 7.908.148 0 7.376-4.72 12.257-7.916C69.343 102.3 71 99.22 71 95.928V82z"/></g><g><path fill="#f5cda5" d="M38 88.487C42.44 93.347 48.003 96 54.169 96c6.474 0 12.29-2.896 16.831-8.232V82l-33 .752z"/></g><g><path fill="#fccca1" d="M54 93c15.28 0 27-15.955 27-42.387C81 17.657 71.299 10 54 10s-27 7.657-27 40.613C27 77.045 38.72 93 54 93"/></g><g><path fill="#ffd7af" d="M79 67.075s4.376 4.442 6.504-6.14c2.271-11.31 2.192-17.45-1.881-18.743-2.604-.828-3.353 1.288-3.353 1.288z"/></g><g><path fill="#fccca1" d="M54 10v83c15.304-.238 27-16.136 27-42.38C81 17.869 71.304 10.1 54 10"/></g><g><path fill="#584a49" d="M54.272 0C25.39 0 16.543 28.086 27.611 54h3.165s-2.481-20.009 7.86-31.821c0 0-3.789 18.2 15.97 18.2 0 0-12.335-11.57-5.508-18.441 0 0 3.95 16.512 21.911 16.512 0 0-6.105-5.182-3.592-14.945 0 0 12.335 18.683 11.974 30.495h2.995C92.364 28.687 87.53 0 54.272 0"/></g><g><g/><g clip-path="url(#lbc1a)"><path fill="#2e2c2d" d="M101.51 117.793a9.61 9.61 0 0 0-3.737-5.022L71.238 94.64s-3.822 13.102-16.641 13.102c-12.818 0-16.641-13.102-16.641-13.102l-26.533 18.13a9.6 9.6 0 0 0-3.738 5.023L0 142.001h109.193z"/></g></g></g></g></svg>