<svg xmlns="http://www.w3.org/2000/svg" width="105" height="143" viewBox="0 0 105 143"><defs><clipPath id="4cp2a"><path d="M0 143h105V0H0z"/></clipPath></defs><g><g><g><path fill="#2e2c2d" d="M105 143c-.086-12.174-.808-27.142-3.558-34.279-5.517-14.338-12.27-13.717-12.27-13.717L89 143z"/></g><g><path fill="#2e2c2d" d="M16 143l-.171-47.996s-6.751-.62-12.272 13.717C.81 115.858.087 130.826 0 143z"/></g><g><path fill="#eeb88e" d="M52.497 65H37v23.225S43.428 101 52.497 101C61.299 101 68 88.944 68 88.944V65z"/></g><g><path fill="#fccca1" d="M81.919 37.76c-.73-.173-1.325.029-1.81.423.004-.463.017-.912.017-1.384 0-11.193-3.336-18.29-7.704-22.799H29.984c-5.166 4.999-8.283 12.815-8.612 24.654-.559-.684-1.297-1.127-2.28-.895-2.92.684-2.655 8.543 0 12.382 1.837 2.659 3.122 2.909 3.738 2.807C27.61 71.754 42.75 83 52.294 83c9.32 0 21.903-9.203 26.27-30.045.696-.057 1.834-.597 3.355-2.814 2.64-3.84 2.906-11.698 0-12.382"/></g><g><path fill="#603813" d="M27.57 14.928c-6.677 6.814-8.218 17.11-7.349 27.903 0 0 7.802 2.186 9.389-13.609 0 0 21.827 5.3 36.507-7.317 0 0 7.74 7.801 8.558 15.211.608 5.489 3.237 6.321 5.176 5.715 0 0 1.666-16.89-6.139-27.903 0 0-6.1-9.928-23.832-9.928-12.115 0-18.09 5.621-22.31 9.928"/></g><g><path fill="#383638" d="M90 143V95.272L70.87 89l-17.667 9.018L35.131 89 16 95.272V143z"/></g><g><path fill="#fefefe" d="M55.001 143L70 87.085 53.296 97.686 35 87l14.725 56z"/></g><g><path fill="#e5e6e7" d="M53.362 143L54 96h-2.997L51 143z"/></g><g/><g clip-path="url(#4cp2a)"><path fill="#2e2c2d" d="M65 140h22v-5H65z"/></g><g clip-path="url(#4cp2a)"><path fill="#2b292a" d="M65 139.733h23v-.467H65z"/></g><g clip-path="url(#4cp2a)"><path fill="#939597" d="M54 102.004a1 1 0 0 1-2 0 1 1 0 0 1 2 0"/></g><g clip-path="url(#4cp2a)"><path fill="#d0d2d3" d="M54 102.003a.999.999 0 0 1-.998.997 1 1 0 1 1 .998-.997"/></g><g clip-path="url(#4cp2a)"><path fill="#939597" d="M52.77 101.499a.276.276 0 0 1-.272.27.27.27 0 0 1-.267-.27c0-.152.116-.268.267-.268a.27.27 0 0 1 .272.268"/></g><g clip-path="url(#4cp2a)"><path fill="#939597" d="M53.767 101.499a.273.273 0 0 1-.268.27.266.266 0 0 1-.267-.27.26.26 0 0 1 .267-.268c.147 0 .268.116.268.268"/></g><g clip-path="url(#4cp2a)"><path fill="#939597" d="M52.77 101.5a.27.27 0 0 1-.272.268.264.264 0 0 1-.267-.268c0-.146.116-.268.267-.268.147 0 .272.122.272.268"/></g><g clip-path="url(#4cp2a)"><path fill="#939597" d="M53.767 101.5a.266.266 0 0 1-.268.268.26.26 0 0 1-.267-.268c0-.146.111-.268.267-.268a.27.27 0 0 1 .268.268"/></g><g clip-path="url(#4cp2a)"><path fill="#fefefe" d="M52.03 101.04c-.044.047-.04.121.012.174l.758.753c.054.045.129.045.169-.008.043-.05.043-.127-.011-.167l-.769-.756c-.048-.049-.115-.049-.16.003"/></g><g clip-path="url(#4cp2a)"><path fill="#fefefe" d="M52.97 101.04c.04.047.04.121 0 .174l-.777.753c-.042.045-.118.045-.155-.008-.05-.05-.05-.127 0-.167l.773-.756c.052-.049.115-.049.159.003"/></g><g clip-path="url(#4cp2a)"><path fill="#939597" d="M54 110.003c0 .55-.447.997-.996.997a1.001 1.001 0 0 1-1.004-.997c0-.557.45-1.003 1.004-1.003.549 0 .996.447.996 1.003"/></g><g clip-path="url(#4cp2a)"><path fill="#d0d2d3" d="M54 110.002a1 1 0 0 1-2 0 1 1 0 1 1 2 0"/></g><g clip-path="url(#4cp2a)"><path fill="#939597" d="M52.77 109.504a.273.273 0 0 1-.272.268.267.267 0 0 1-.267-.268c0-.146.116-.277.267-.277.147 0 .272.131.272.277"/></g><g clip-path="url(#4cp2a)"><path fill="#939597" d="M53.767 109.504a.27.27 0 0 1-.268.268.263.263 0 0 1-.267-.268c0-.146.111-.277.267-.277.147 0 .268.131.268.277"/></g><g clip-path="url(#4cp2a)"><path fill="#939597" d="M52.77 110.501a.275.275 0 0 1-.272.269.27.27 0 0 1-.267-.269c0-.155.116-.271.267-.271a.27.27 0 0 1 .272.271"/></g><g clip-path="url(#4cp2a)"><path fill="#939597" d="M53.767 110.501a.272.272 0 0 1-.268.269.265.265 0 0 1-.267-.269.26.26 0 0 1 .267-.271c.147 0 .268.116.268.271"/></g><g clip-path="url(#4cp2a)"><path fill="#fefefe" d="M52.03 109.037a.123.123 0 0 0 .012.173l.758.757c.054.045.129.045.169-.006.043-.052.043-.126-.011-.173l-.769-.756a.11.11 0 0 0-.16.005"/></g><g clip-path="url(#4cp2a)"><path fill="#fefefe" d="M52.97 109.037c.04.052.04.124 0 .173l-.777.757c-.042.045-.118.045-.155-.006-.05-.052-.05-.126 0-.173l.773-.756c.052-.044.115-.043.159.005"/></g><g clip-path="url(#4cp2a)"><path fill="#939597" d="M54 119.002a.998.998 0 0 1-.996.998 1.001 1.001 0 0 1-1.004-.998 1 1 0 0 1 2 0"/></g><g clip-path="url(#4cp2a)"><path fill="#d0d2d3" d="M54 118.999a1 1 0 1 1-2 0 .996.996 0 0 1 1.002-.999c.55 0 .998.445.998.999"/></g><g clip-path="url(#4cp2a)"><path fill="#939597" d="M52.77 118.498a.276.276 0 0 1-.272.272.27.27 0 0 1-.267-.272c0-.147.116-.269.267-.269.147 0 .272.123.272.269"/></g><g clip-path="url(#4cp2a)"><path fill="#939597" d="M53.767 118.498a.272.272 0 0 1-.268.272.266.266 0 0 1-.267-.272c0-.147.111-.269.267-.269a.27.27 0 0 1 .268.269"/></g><g clip-path="url(#4cp2a)"><path fill="#939597" d="M52.77 119.503a.271.271 0 0 1-.272.268.265.265 0 0 1-.267-.268c0-.152.116-.274.267-.274.147 0 .272.122.272.274"/></g><g clip-path="url(#4cp2a)"><path fill="#939597" d="M53.767 119.503a.268.268 0 0 1-.268.268.262.262 0 0 1-.267-.268c0-.152.111-.274.267-.274.147 0 .268.122.268.274"/></g><g clip-path="url(#4cp2a)"><path fill="#fefefe" d="M52.03 118.036a.126.126 0 0 0 .012.175l.758.755c.054.05.129.042.169-.006a.117.117 0 0 0-.011-.17l-.769-.756c-.048-.046-.115-.046-.16.002"/></g><g clip-path="url(#4cp2a)"><path fill="#fefefe" d="M52.97 118.036c.04.052.04.13 0 .175l-.777.755c-.042.05-.118.042-.155-.006a.115.115 0 0 1 0-.17l.773-.756c.052-.046.115-.046.159.002"/></g><g clip-path="url(#4cp2a)"><path fill="#939597" d="M54 127.998a1 1 0 0 1-.996 1.002c-.553 0-1.004-.45-1.004-1.002s.45-.998 1.004-.998c.549 0 .996.447.996.998"/></g><g clip-path="url(#4cp2a)"><path fill="#d0d2d3" d="M54 128a1.001 1.001 0 1 1-2.002-.003A1.001 1.001 0 0 1 54 128"/></g><g clip-path="url(#4cp2a)"><path fill="#939597" d="M52.77 127.5a.277.277 0 0 1-.272.271.271.271 0 0 1-.267-.271c0-.155.116-.271.267-.271a.27.27 0 0 1 .272.271"/></g><g clip-path="url(#4cp2a)"><path fill="#939597" d="M53.767 127.5a.274.274 0 0 1-.268.271.267.267 0 0 1-.267-.271.26.26 0 0 1 .267-.271c.147 0 .268.116.268.271"/></g><g clip-path="url(#4cp2a)"><path fill="#939597" d="M52.77 128.497a.274.274 0 0 1-.272.274.268.268 0 0 1-.267-.274.27.27 0 0 1 .267-.268c.147 0 .272.125.272.268"/></g><g clip-path="url(#4cp2a)"><path fill="#939597" d="M53.767 128.497a.27.27 0 0 1-.268.274.264.264 0 0 1-.267-.274c0-.143.111-.268.267-.268.147 0 .268.125.268.268"/></g><g clip-path="url(#4cp2a)"><path fill="#fefefe" d="M52.03 128.039c-.044.05-.04.131.012.171l.758.757c.054.044.129.044.169-.003.043-.052.043-.124-.011-.172l-.769-.764a.113.113 0 0 0-.16.01"/></g><g clip-path="url(#4cp2a)"><path fill="#fefefe" d="M52.97 128.039c.04.05.04.131 0 .171l-.777.757c-.042.044-.118.044-.155-.003-.05-.052-.05-.124 0-.172l.773-.764c.052-.039.115-.039.159.01"/></g><g clip-path="url(#4cp2a)"><path fill="#939597" d="M54 136.002a1 1 0 1 1-2-.004 1 1 0 0 1 2 .004"/></g><g clip-path="url(#4cp2a)"><path fill="#d0d2d3" d="M54 136.006a.995.995 0 0 1-.998.994.994.994 0 0 1-1.002-.994.999.999 0 1 1 2 0"/></g><g clip-path="url(#4cp2a)"><path fill="#939597" d="M52.77 135.501a.273.273 0 0 1-.272.268.267.267 0 0 1-.267-.268c0-.152.116-.27.267-.27.147 0 .272.119.272.27"/></g><g clip-path="url(#4cp2a)"><path fill="#939597" d="M53.767 135.501a.27.27 0 0 1-.268.268.263.263 0 0 1-.267-.268c0-.152.111-.27.267-.27.147 0 .268.119.268.27"/></g><g clip-path="url(#4cp2a)"><path fill="#939597" d="M52.77 136.499a.276.276 0 0 1-.272.27.27.27 0 0 1-.267-.27c0-.152.116-.268.267-.268a.27.27 0 0 1 .272.268"/></g><g clip-path="url(#4cp2a)"><path fill="#939597" d="M53.767 136.499a.273.273 0 0 1-.268.27.266.266 0 0 1-.267-.27.26.26 0 0 1 .267-.268c.147 0 .268.116.268.268"/></g><g clip-path="url(#4cp2a)"><path fill="#fefefe" d="M52.03 136.033a.136.136 0 0 0 .012.182l.758.753c.054.044.129.044.169-.007.043-.057.043-.13-.011-.174l-.769-.754a.113.113 0 0 0-.16 0"/></g><g clip-path="url(#4cp2a)"><path fill="#fefefe" d="M52.97 136.033c.04.057.04.134 0 .182l-.777.753c-.042.044-.118.044-.155-.007-.05-.057-.05-.13 0-.174l.773-.754c.052-.046.115-.042.159 0"/></g><g clip-path="url(#4cp2a)"><path fill="#d0d2d3" d="M53 95.697s8.826-1.62 15.538-7.674L71 88l-6.93 17L53 98.076z"/></g><g clip-path="url(#4cp2a)"><path fill="#d0d2d3" d="M53 95.697s-8.826-1.62-15.54-7.674L35 88l6.932 17L53 98.076z"/></g><g clip-path="url(#4cp2a)"><path fill="#2e2c2d" d="M56.903 143c1.721-3.873 3.442-7.472 4.097-7.942L57.108 100h-8.04L45 136.509A1108.83 1108.83 0 0 0 47.969 143z"/></g><g clip-path="url(#4cp2a)"><path fill="#2e2c2d" d="M52.496 107c-2.525-1.832-3.663-2.969-5.496-5.499 1.833-2.534 2.97-3.668 5.496-5.501 2.526 1.833 3.673 2.967 5.504 5.501-1.83 2.53-2.978 3.667-5.504 5.499"/></g><g clip-path="url(#4cp2a)"><path fill="#2e2c2d" d="M47.948 143H50L35.32 88.06 31.474 88l-3.428 4.655 4.01 3.998L28 100.609z"/></g><g clip-path="url(#4cp2a)"><path fill="#2e2c2d" d="M57.007 143L77 100.609l-4.062-3.956 4.025-3.998L73.519 88l-3.534.025L55 143z"/></g><g clip-path="url(#4cp2a)"><path fill="#eea915" d="M27 29v-6.943c0-.583-.542-1.057-1.215-1.057h-4.569C20.55 21 20 21.474 20 22.057V29z"/></g><g clip-path="url(#4cp2a)"><path fill="#eea915" d="M83 29v-6.943c0-.583-.543-1.057-1.217-1.057h-4.567c-.67 0-1.216.474-1.216 1.057V29z"/></g><g clip-path="url(#4cp2a)"><path fill="#ffc709" d="M80.922 29A25.01 25.01 0 0 0 81 27.23C81 13.295 67.79 2 51.498 2 35.208 2 22 13.295 22 27.23c0 .593.033 1.185.08 1.77z"/></g><g clip-path="url(#4cp2a)"><path fill="#eea915" d="M63 25.725C63 26.98 61.809 28 60.346 28H42.652C41.187 28 40 26.98 40 25.725V5.453C40 4.825 42.872 1 51.496 1 60.488 1 63 4.825 63 5.453z"/></g><g clip-path="url(#4cp2a)"><path fill="#e8901a" d="M54 23.518C54 24.337 52.88 25 51.498 25 50.118 25 49 24.337 49 23.518V1.476C49 .66 50.117 0 51.498 0 52.88 0 54 .659 54 1.476z"/></g><g clip-path="url(#4cp2a)"><path fill="#eea915" d="M84.544 33.274c-.06.466-.695.785-1.424.717a322.982 322.982 0 0 0-62.236 0c-.73.068-1.368-.25-1.422-.717-.15-1.255-.305-2.513-.459-3.764-.052-.464.505-.906 1.245-.98a330.253 330.253 0 0 1 63.508 0c.742.074 1.297.516 1.24.98-.152 1.251-.301 2.51-.452 3.764"/></g></g></g></svg>