<svg xmlns="http://www.w3.org/2000/svg" width="70" height="32" viewBox="0 0 70 32"><g><g><g><path d="M65.843 29.125H63.43l-7.301-13.06 11.416-6.015V27.41a1.71 1.71 0 0 1-1.703 1.714zm-35.57-1.714V10.05l11.417 6.015-7.301 13.06h-2.412a1.71 1.71 0 0 1-1.703-1.714zm18.2-7.768c.27.143.593.143.864 0l5.134-2.706 6.814 12.188h-24.76l6.814-12.188zM31.978 2.875h33.874c.941 0 1.703.767 1.704 1.713v3.346l-13.15 6.92h-.01l-.006.005-5.475 2.885-5.475-2.877-.005-.006h-.01L30.273 7.934V4.588a1.71 1.71 0 0 1 1.704-1.713zM65.843 1H31.977c-1.97.003-3.564 1.608-3.567 3.589V27.41c.003 1.981 1.598 3.586 3.567 3.589h33.866c1.97-.003 3.564-1.608 3.567-3.589V4.59C69.407 2.608 67.812 1.003 65.843 1z"/><path fill="none" stroke="#000" stroke-miterlimit="50" d="M65.843 29.125H63.43l-7.301-13.06 11.416-6.015V27.41a1.71 1.71 0 0 1-1.703 1.714zm-35.57-1.714V10.05l11.417 6.015-7.301 13.06h-2.412a1.71 1.71 0 0 1-1.703-1.714zm18.2-7.768c.27.143.593.143.864 0l5.134-2.706 6.814 12.188h-24.76l6.814-12.188zM31.978 2.875h33.874c.941 0 1.703.767 1.704 1.713v3.346l-13.15 6.92h-.01l-.006.005-5.475 2.885-5.475-2.877-.005-.006h-.01L30.273 7.934V4.588a1.71 1.71 0 0 1 1.704-1.713zM65.843 1H31.977c-1.97.003-3.564 1.608-3.567 3.589V27.41c.003 1.981 1.598 3.586 3.567 3.589h33.866c1.97-.003 3.564-1.608 3.567-3.589V4.59C69.407 2.608 67.812 1.003 65.843 1z"/></g><g><path d="M1.917 7h19.576c.507 0 .917-.448.917-1s-.41-1-.917-1H1.917C1.41 5 1 5.448 1 6s.41 1 .917 1z"/><path fill="none" stroke="#000" stroke-miterlimit="50" d="M1.917 7h19.576c.507 0 .917-.448.917-1s-.41-1-.917-1H1.917C1.41 5 1 5.448 1 6s.41 1 .917 1z"/></g><g><path d="M21.059 15H6.94c-.52 0-.941.448-.941 1s.421 1 .941 1H21.06c.52 0 .941-.448.941-1s-.421-1-.941-1z"/><path fill="none" stroke="#000" stroke-miterlimit="50" d="M21.059 15H6.94c-.52 0-.941.448-.941 1s.421 1 .941 1H21.06c.52 0 .941-.448.941-1s-.421-1-.941-1z"/></g><g><path d="M12.125 25h-5.25C6.392 25 6 25.448 6 26s.392 1 .875 1h5.25c.483 0 .875-.448.875-1s-.392-1-.875-1z"/><path fill="none" stroke="#000" stroke-miterlimit="50" d="M12.125 25h-5.25C6.392 25 6 25.448 6 26s.392 1 .875 1h5.25c.483 0 .875-.448.875-1s-.392-1-.875-1z"/></g><g><path d="M21.41 25h-3a1 1 0 0 0 0 2h3a1 1 0 0 0 0-2z"/><path fill="none" stroke="#000" stroke-miterlimit="50" d="M21.41 25h-3a1 1 0 0 0 0 2h3a1 1 0 0 0 0-2z"/></g></g></g></svg>