<svg xmlns="http://www.w3.org/2000/svg" width="122" height="17" viewBox="0 0 122 17"><g><g><g><path d="M9 0l2.781 5.635L18 6.54l-4.5 4.386 1.062 6.194L9 14.195l-5.562 2.924L4.5 10.925 0 6.54l6.219-.904z"/></g><g><path d="M35 0l2.781 5.635L44 6.54l-4.5 4.386 1.062 6.194L35 14.195l-5.562 2.924 1.062-6.194L26 6.54l6.219-.904z"/></g><g><path d="M61 0l2.781 5.635L70 6.54l-4.5 4.386 1.062 6.194L61 14.195l-5.562 2.924 1.062-6.194L52 6.54l6.219-.904z"/></g><g><path d="M87 0l2.781 5.635L96 6.54l-4.5 4.386 1.062 6.194L87 14.195l-5.562 2.924 1.062-6.194L78 6.54l6.219-.904z"/></g><g><path d="M113 0l2.781 5.635L122 6.54l-4.5 4.386 1.062 6.194L113 14.195l-5.562 2.924 1.062-6.194L104 6.54l6.219-.904z"/></g></g></g></svg>