<svg xmlns="http://www.w3.org/2000/svg" width="14" height="18" viewBox="0 0 14 18"><g><g><g transform="rotate(-270 7 10)"><path d="M13.79 9.516L9.265 5.2a.735.735 0 0 0-1.008 0 .655.655 0 0 0 0 .96l3.314 3.16H.712C.317 9.32 0 9.622 0 10c0 .377.317.679.712.679H11.57l-3.314 3.159a.655.655 0 0 0 0 .96c.137.132.322.202.501.202.18 0 .364-.065.501-.201l4.528-4.317a.657.657 0 0 0 .005-.966z"/><path fill="none" stroke="#000" stroke-miterlimit="50" stroke-width=".51" d="M13.79 9.516L9.265 5.2a.735.735 0 0 0-1.008 0 .655.655 0 0 0 0 .96l3.314 3.16v0H.712C.317 9.32 0 9.622 0 10c0 .377.317.679.712.679H11.57v0l-3.314 3.159a.655.655 0 0 0 0 .96c.137.132.322.202.501.202.18 0 .364-.065.501-.201l4.528-4.317a.657.657 0 0 0 .005-.966z"/></g><g><path d="M.913 2h12.174c.504 0 .913-.448.913-1s-.409-1-.913-1H.913C.409 0 0 .448 0 1s.409 1 .913 1z"/></g></g></g></svg>