<svg xmlns="http://www.w3.org/2000/svg" width="17" height="20" viewBox="0 0 17 20"><g><g><path d="M1.415 16.534a4.279 4.279 0 0 0 1.237-1.76H14.42c.254.681.68 1.287 1.236 1.76zm5.304 1.315h3.512a2.485 2.485 0 0 1-1.734.716 2.49 2.49 0 0 1-1.778-.716zM8.529 3.78c2.818 0 4.89 2.817 4.89 5.282-.025 1.484.15 2.965.52 4.403H3.118c.37-1.438.545-2.919.52-4.403 0-2.465 2.072-5.282 4.89-5.282zm1.04-1.214a5.159 5.159 0 0 0-2.081 0 1.23 1.23 0 0 1 1.04-.765c.466.039.869.335 1.04.765zm5.184 6.49a6.914 6.914 0 0 0-1.707-4.397 6.428 6.428 0 0 0-2.086-1.623.652.652 0 0 0 0-.118C10.96 1.583 9.866.5 8.515.5 7.165.5 6.07 1.583 6.07 2.919a.652.652 0 0 0 0 .118A6.428 6.428 0 0 0 3.985 4.66a6.914 6.914 0 0 0-1.708 4.398c0 4.723-1.476 6.218-1.658 6.385-.5.296-.733.89-.565 1.443a1.36 1.36 0 0 0 1.334.954h4.348a.65.65 0 0 0 0 .906 3.83 3.83 0 0 0 2.73 1.14 3.83 3.83 0 0 0 2.73-1.14.65.65 0 0 0 0-.88h4.406a1.36 1.36 0 0 0 1.334-.954 1.255 1.255 0 0 0-.52-1.455c-.183-.168-1.663-1.667-1.663-6.4z"/></g></g></svg>