<svg xmlns="http://www.w3.org/2000/svg" width="17" height="21" viewBox="0 0 17 21"><g><g><g><path fill="#ef1503" d="M11.5 8c-.276 0-.5.193-.5.43v8.14c0 .237.224.43.5.43s.5-.193.5-.43V8.43c0-.237-.224-.43-.5-.43z"/></g><g><path fill="#ef1503" d="M5.5 8c-.276 0-.5.193-.5.43v8.14c0 .237.224.43.5.43s.5-.193.5-.43V8.43C6 8.194 5.776 8 5.5 8z"/></g><g><path fill="#ef1503" d="M2.653 4.204h11.704c.43 0 .78.36.78.806a.793.793 0 0 1-.78.806H2.653c-.43 0-.78-.361-.78-.806 0-.445.35-.806.78-.806zm3.079-1.446a.87.87 0 0 1 .245-.619.82.82 0 0 1 .603-.249h3.84a.821.821 0 0 1 .603.25.87.87 0 0 1 .245.618v.556H5.732zM12.6 19.11H4.409c-.74 0-1.316-.653-1.316-1.49V6.695h10.824v10.923c0 .838-.576 1.491-1.316 1.491zM2.228 6.657v10.962c0 .648.231 1.257.635 1.694.401.437.96.686 1.545.687h8.184a2.102 2.102 0 0 0 1.545-.687c.404-.437.635-1.046.635-1.694V6.657c.802-.22 1.321-1.017 1.214-1.863-.107-.847-.808-1.48-1.638-1.48h-2.215v-.556a1.774 1.774 0 0 0-.499-1.248A1.675 1.675 0 0 0 10.42 1H6.58a1.675 1.675 0 0 0-1.214.51c-.322.33-.502.78-.5 1.248v.556H2.653c-.83 0-1.53.633-1.638 1.48-.107.846.412 1.644 1.214 1.863z"/><path fill="none" stroke="#ef1503" stroke-miterlimit="50" stroke-width=".5" d="M2.653 4.204h11.704c.43 0 .78.36.78.806a.793.793 0 0 1-.78.806H2.653c-.43 0-.78-.361-.78-.806 0-.445.35-.806.78-.806zm3.079-1.446a.87.87 0 0 1 .245-.619.82.82 0 0 1 .603-.249h3.84a.821.821 0 0 1 .603.25.87.87 0 0 1 .245.618v.556H5.732zM12.6 19.11H4.409c-.74 0-1.316-.653-1.316-1.49V6.695h10.824v10.923c0 .838-.576 1.491-1.316 1.491zM2.228 6.657v10.962c0 .648.231 1.257.635 1.694.401.437.96.686 1.545.687h8.184a2.102 2.102 0 0 0 1.545-.687c.404-.437.635-1.046.635-1.694V6.657c.802-.22 1.321-1.017 1.214-1.863-.107-.847-.808-1.48-1.638-1.48h-2.215v-.556a1.774 1.774 0 0 0-.499-1.248A1.675 1.675 0 0 0 10.42 1H6.58a1.675 1.675 0 0 0-1.214.51c-.322.33-.502.78-.5 1.248v.556H2.653c-.83 0-1.53.633-1.638 1.48-.107.846.412 1.644 1.214 1.863z"/></g><g><path fill="#ef1503" d="M8.5 8c-.276 0-.5.193-.5.43v8.14c0 .237.224.43.5.43s.5-.193.5-.43V8.43C9 8.194 8.776 8 8.5 8z"/></g></g></g></svg>