<svg xmlns="http://www.w3.org/2000/svg" width="20" height="13" viewBox="0 0 20 13"><g><g><path fill="#62676e" d="M12.262 6.224c.09-1.393-1.039-2.54-2.405-2.453-1.13.075-2.046 1.006-2.115 2.157-.09 1.394 1.039 2.54 2.405 2.453 1.125-.07 2.042-1 2.115-2.157zM10.28 10.36c-2.54.162-4.636-1.97-4.477-4.56.131-2.136 1.831-3.867 3.929-4 2.54-.164 4.636 1.968 4.477 4.559-.136 2.132-1.835 3.863-3.929 4zM10 0C6.179 0 2.714 2.132.156 5.594a.82.82 0 0 0 0 .964C2.714 10.025 6.18 12.157 10 12.157c3.821 0 7.286-2.132 9.844-5.595a.82.82 0 0 0 0-.963C17.286 2.132 13.82 0 10 0z"/></g></g></svg>