<svg xmlns="http://www.w3.org/2000/svg" width="27" height="25" viewBox="0 0 27 25"><g><g><path d="M21.06 1c-1.32 0-2.56.516-3.494 1.452L6.182 13.878a3.463 3.463 0 0 0-1.015 2.46 3.477 3.477 0 0 0 3.467 3.48c.926 0 1.796-.362 2.451-1.02L21.681 8.166a.524.524 0 0 0 0-.74.52.52 0 0 0-.737 0L10.35 18.06a2.405 2.405 0 0 1-1.715.713 2.433 2.433 0 0 1-2.426-2.435c0-.65.253-1.261.71-1.721L18.304 3.19a3.866 3.866 0 0 1 2.757-1.146c2.15 0 3.898 1.756 3.898 3.913a3.894 3.894 0 0 1-1.141 2.767l-12.605 12.65a5.326 5.326 0 0 1-3.799 1.58c-2.961 0-5.371-2.42-5.371-5.392 0-1.44.558-2.793 1.573-3.812L15.43 1.892a.524.524 0 0 0 0-.739.52.52 0 0 0-.737 0L2.878 13.013A6.405 6.405 0 0 0 1 17.562C1 21.113 3.877 24 7.413 24c1.713 0 3.324-.67 4.535-1.885l12.605-12.65A4.934 4.934 0 0 0 26 5.957C26 3.224 23.784 1 21.06 1z"/><path fill="none" stroke="#000" stroke-miterlimit="50" stroke-width=".5" d="M21.06 1c-1.32 0-2.56.516-3.494 1.452L6.182 13.878a3.463 3.463 0 0 0-1.015 2.46 3.477 3.477 0 0 0 3.467 3.48c.926 0 1.796-.362 2.451-1.02L21.681 8.166a.524.524 0 0 0 0-.74.52.52 0 0 0-.737 0L10.35 18.06a2.405 2.405 0 0 1-1.715.713 2.433 2.433 0 0 1-2.426-2.435c0-.65.253-1.261.71-1.721L18.304 3.19a3.866 3.866 0 0 1 2.757-1.146c2.15 0 3.898 1.756 3.898 3.913a3.894 3.894 0 0 1-1.141 2.767l-12.605 12.65a5.326 5.326 0 0 1-3.799 1.58c-2.961 0-5.371-2.42-5.371-5.392 0-1.44.558-2.793 1.573-3.812L15.43 1.892a.524.524 0 0 0 0-.739.52.52 0 0 0-.737 0L2.878 13.013A6.405 6.405 0 0 0 1 17.562C1 21.113 3.877 24 7.413 24c1.713 0 3.324-.67 4.535-1.885l12.605-12.65A4.934 4.934 0 0 0 26 5.957C26 3.224 23.784 1 21.06 1z"/></g></g></svg>