<svg xmlns="http://www.w3.org/2000/svg" width="24" height="24" viewBox="0 0 24 24"><g><g><path fill="#62676e" d="M12 0c3.259 0 3.668.014 4.948.072 1.277.058 2.15.261 2.912.558.79.307 1.459.717 2.126 1.384A5.883 5.883 0 0 1 23.37 4.14c.297.763.5 1.635.558 2.912C23.986 8.332 24 8.741 24 12c0 3.259-.014 3.668-.072 4.948-.058 1.277-.261 2.15-.558 2.912a5.883 5.883 0 0 1-1.384 2.126 5.883 5.883 0 0 1-2.126 1.384c-.763.297-1.635.5-2.912.558-1.28.058-1.689.072-4.948.072-3.259 0-3.668-.014-4.948-.072-1.277-.058-2.15-.261-2.912-.558a5.883 5.883 0 0 1-2.126-1.384A5.882 5.882 0 0 1 .63 19.86c-.297-.763-.5-1.635-.558-2.912C.014 15.668 0 15.259 0 12c0-3.259.014-3.668.072-4.948C.13 5.775.333 4.902.63 4.14a5.882 5.882 0 0 1 1.384-2.126A5.882 5.882 0 0 1 4.14.63C4.903.333 5.775.13 7.052.072 8.332.014 8.741 0 12 0zm0 2.162c-3.204 0-3.584.012-4.849.07-1.17.053-1.805.249-2.228.413-.56.218-.96.478-1.38.898-.42.42-.68.82-.898 1.38-.164.423-.36 1.058-.413 2.228-.058 1.265-.07 1.645-.07 4.849s.012 3.584.07 4.849c.053 1.17.249 1.805.413 2.228.218.56.478.96.898 1.38.42.42.82.68 1.38.898.423.164 1.058.36 2.228.413 1.265.058 1.645.07 4.849.07s3.584-.012 4.849-.07c1.17-.053 1.805-.249 2.228-.413.56-.218.96-.478 1.38-.898.42-.42.68-.82.898-1.38.164-.423.36-1.058.413-2.228.058-1.265.07-1.645.07-4.849s-.012-3.584-.07-4.849c-.053-1.17-.249-1.805-.413-2.228a3.717 3.717 0 0 0-.898-1.38c-.42-.42-.82-.68-1.38-.898-.423-.164-1.058-.36-2.228-.413-1.265-.058-1.645-.07-4.849-.07zm0 3.676a6.162 6.162 0 1 1 0 12.324 6.162 6.162 0 0 1 0-12.324zM12 16a4 4 0 1 0 0-8 4 4 0 0 0 0 8zm6.406-8.966a1.44 1.44 0 1 1 0-2.88 1.44 1.44 0 0 1 0 2.88z"/></g></g></svg>