<?xml version="1.0" encoding="UTF-8"?>
<svg width="18px" height="25px" viewBox="0 0 18 25" version="1.1" xmlns="http://www.w3.org/2000/svg" xmlns:xlink="http://www.w3.org/1999/xlink">
    <!-- Generator: Sketch 57.1 (83088) - https://sketch.com -->
    <title>radio</title>
    <desc>Created with Sketch.</desc>
    <g id="Page-1" stroke="none" stroke-width="1" fill="none" fill-rule="evenodd" opacity="0.320661272">
        <g id="Artboard-Copy-6" transform="translate(-358.000000, -671.000000)" fill="#000000" fill-rule="nonzero">
            <g id="radio" transform="translate(358.000000, 671.000000)">
                <path d="M18,10.7837919 C18,10.3509298 17.6559152,10 17.2314961,10 C16.8070771,10 16.4629923,10.3509298 16.4629923,10.7837919 C16.4629923,14.9807361 13.115082,18.3952471 9,18.3952471 C4.88491797,18.3952471 1.53700773,14.9807361 1.53700773,10.7837919 C1.53700773,10.3509298 1.19292293,10 0.768503865,10 C0.344084797,10 0,10.3509298 0,10.7837919 C0,15.5810685 3.62733824,19.530021 8.23149613,19.928971 L8.23149613,23.4324162 L6.53059215,23.4324162 C6.10617308,23.4324162 5.76208828,23.783346 5.76208828,24.2162081 C5.76208828,24.6490702 6.10617308,25 6.53059215,25 L11.4695103,25 C11.8939294,25 12.2380142,24.6490702 12.2380142,24.2162081 C12.2380142,23.783346 11.8939294,23.4324162 11.4695103,23.4324162 L9.76850387,23.4324162 L9.76850387,19.928971 C14.3726618,19.5299687 18,15.5810162 18,10.7837919 Z" id="Path"></path>
                <path d="M8.99994954,0 C6.79439111,0 5,1.78240602 5,3.97328321 L5,12.0267669 C5,14.2176441 6.79439111,16 8.99994954,16 C11.2055584,16 13,14.217594 13,12.0267168 L13,3.97328321 C13,1.78240602 11.2055584,0 8.99994954,0 Z M11.4861292,12.0267669 C11.4861292,13.3884712 10.37081,14.4962907 8.99994954,14.4962907 C7.62913949,14.4962907 6.51387084,13.3884712 6.51387084,12.0267669 L6.51387084,3.97328321 C6.51387084,2.61157895 7.62913949,1.5037594 8.99994954,1.5037594 C10.37081,1.5037594 11.4861292,2.61157895 11.4861292,3.97328321 L11.4861292,12.0267669 L11.4861292,12.0267669 Z" id="Shape"></path>
            </g>
        </g>
    </g>
</svg>