<svg xmlns="http://www.w3.org/2000/svg" width="83" height="44" viewBox="0 0 83 44"><g><g><g><path d="M29.674 25.238l-3.037-6.8H24.15l4.32 9.665L26.854 32h2.465L35 18.438h-2.485zM19.795 15l-4.635 9.837L10.505 15H8v13.37h2.604v-7.659l3.451 7.66h2.17l3.472-7.679v7.679H22.3V15z"/></g><g><path d="M76.847 19.078c-.629.49-.97.94-1.021 1.347v-1.987h-2.489v9.933h2.489v-5.597c.078-.42.38-.914.904-1.48a2.534 2.534 0 0 1 1.934-.85c1.232 0 1.847.783 1.847 2.35v5.577H83v-5.73c0-1.452-.37-2.531-1.108-3.238-.739-.707-1.633-1.06-2.683-1.06-.946 0-1.734.245-2.362.735zm-8.843 2.073c.486.483.729 1.235.729 2.253 0 .994-.247 1.742-.74 2.245a2.41 2.41 0 0 1-1.788.754c-.7 0-1.315-.27-1.847-.811-.531-.542-.797-1.27-.797-2.188 0-.904.266-1.626.797-2.167.532-.542 1.147-.812 1.847-.812.713 0 1.313.242 1.799.726zm-3.84-2.503a5.242 5.242 0 0 0-1.517.936c-.466.408-.845.943-1.137 1.605-.292.662-.437 1.4-.437 2.215 0 .828.145 1.58.437 2.254.292.675.674 1.213 1.147 1.614.473.402.982.707 1.526.917.545.21 1.089.315 1.633.315.726 0 1.358-.181 1.896-.544.538-.363.84-.716.904-1.06v1.47h2.489v-9.932h-2.489v1.337c-.065-.33-.363-.656-.894-.974-.532-.318-1.167-.477-1.906-.477-.557 0-1.108.108-1.652.324zM56.798 15v13.37h2.528V15zm-8.687 10.649c-.493-.503-.74-1.251-.74-2.245 0-1.018.244-1.77.73-2.253.486-.484 1.085-.726 1.798-.726.7 0 1.316.27 1.847.812.532.54.797 1.263.797 2.168 0 .916-.265 1.645-.797 2.187-.531.54-1.147.811-1.847.811s-1.296-.251-1.788-.754zm.282-6.857c-.525.312-.827.64-.904.983v-1.337H45V32h2.489v-5.1c.077.344.382.697.913 1.06.532.363 1.16.544 1.886.544.752 0 1.478-.175 2.178-.525.7-.35 1.302-.926 1.808-1.728.505-.803.758-1.751.758-2.846 0-.815-.146-1.554-.437-2.216-.292-.662-.671-1.197-1.138-1.605a5.242 5.242 0 0 0-1.516-.936 4.439 4.439 0 0 0-1.653-.324c-.739 0-1.37.156-1.895.468z"/></g><g><path fill="none" stroke="#000" stroke-miterlimit="50" d="M1 43v0V1v0h47v0L33.144 43v0z"/></g></g></g></svg>