<svg xmlns="http://www.w3.org/2000/svg" width="20" height="22" viewBox="0 0 20 22"><g><g><g><path d="M9.64 20.33H4.014a2.773 2.773 0 0 1-2.77-2.77V4.006a2.773 2.773 0 0 1 2.77-2.77H9.73a.615.615 0 0 0 .618-.617A.615.615 0 0 0 9.73 0H4.015A4.009 4.009 0 0 0 .01 4.005V17.56a4.009 4.009 0 0 0 4.005 4.004h5.624a.618.618 0 0 0 0-1.236z"/></g><g><path d="M19.82 10.349l-3.927-3.927a.616.616 0 0 0-.874 0 .616.616 0 0 0 0 .874l2.874 2.874H5.358a.615.615 0 0 0-.618.618c0 .343.275.618.618.618h12.535L15.02 14.28a.622.622 0 1 0 .435 1.057c.156 0 .316-.06.435-.183l3.927-3.927a.617.617 0 0 0 .004-.878z"/></g></g></g></svg>