<?xml version="1.0" encoding="UTF-8"?>
<svg width="112px" height="58px" viewBox="0 0 112 58" version="1.1" xmlns="http://www.w3.org/2000/svg" xmlns:xlink="http://www.w3.org/1999/xlink">
    <!-- Generator: Sketch 57.1 (83088) - https://sketch.com -->
    <title>logo</title>
    <desc>Created with Sketch.</desc>
    <g id="Page-1" stroke="none" stroke-width="1" fill="none" fill-rule="evenodd">
        <g id="esas-sehife-copy-2" transform="translate(-309.000000, -19.000000)">
            <g id="header">
                <g id="logo" transform="translate(310.000000, 20.000000)">
                    <path d="M28.67,18.1776456 L28.67,36.3776456 L25.238,36.3776456 L25.238,25.9256456 L20.662,36.3776456 L17.802,36.3776456 L13.252,25.9516456 L13.252,36.3776456 L9.82,36.3776456 L9.82,18.1776456 L13.122,18.1776456 L19.258,31.5676456 L25.368,18.1776456 L28.67,18.1776456 Z M42.134061,22.8576456 L45.410061,22.8576456 L37.922061,41.3176456 L34.672061,41.3176456 L36.804061,36.0136456 L31.110061,22.8576456 L34.386061,22.8576456 L38.390061,32.1136456 L42.134061,22.8576456 Z" id="My" fill="#FFFFFF" fill-rule="nonzero"></path>
                    <path d="M66.502,22.7016456 C67.2473335,22.7016456 67.984,22.8489791 68.712,23.1436456 C69.44,23.4383121 70.116,23.8629791 70.74,24.4176456 C71.364,24.9723121 71.871,25.7003121 72.261,26.6016456 C72.651,27.5029791 72.846,28.5083121 72.846,29.6176456 C72.846,31.1083121 72.508,32.3996456 71.832,33.4916456 C71.156,34.5836456 70.35,35.3679791 69.414,35.8446456 C68.478,36.3213121 67.5073335,36.5596456 66.502,36.5596456 C65.5313335,36.5596456 64.6906665,36.3126456 63.98,35.8186456 C63.2693335,35.3246456 62.862,34.8436456 62.758,34.3756456 L62.758,41.3176456 L59.43,41.3176456 L59.43,22.8576456 L62.758,22.8576456 L62.758,24.6776456 C62.862,24.2096456 63.265,23.7633121 63.967,23.3386456 C64.669,22.9139791 65.514,22.7016456 66.502,22.7016456 Z M65.982,33.6996456 C66.918,33.6996456 67.7413335,33.3313121 68.452,32.5946456 C69.1626665,31.8579791 69.518,30.8656456 69.518,29.6176456 C69.518,28.3869791 69.1626665,27.4033121 68.452,26.6666456 C67.7413335,25.9299791 66.918,25.5616456 65.982,25.5616456 C65.0286665,25.5616456 64.227,25.8909791 63.577,26.5496456 C62.927,27.2083121 62.602,28.2309791 62.602,29.6176456 C62.602,30.9696456 62.9313335,31.9879791 63.59,32.6726456 C64.2486665,33.3573121 65.046,33.6996456 65.982,33.6996456 Z M78.588061,18.1776456 L78.588061,36.3776456 L75.208061,36.3776456 L75.208061,18.1776456 L78.588061,18.1776456 Z M87.268122,22.7016456 C88.256122,22.7016456 89.1054555,22.9183121 89.816122,23.3516456 C90.5267885,23.7849791 90.9254555,24.2269791 91.012122,24.6776456 L91.012122,22.8576456 L94.340122,22.8576456 L94.340122,36.3776456 L91.012122,36.3776456 L91.012122,34.3756456 C90.9254555,34.8436456 90.5224555,35.3246456 89.803122,35.8186456 C89.0837885,36.3126456 88.2387885,36.5596456 87.268122,36.5596456 C86.540122,36.5596456 85.812122,36.4166456 85.084122,36.1306456 C84.356122,35.8446456 83.6757885,35.4286456 83.043122,34.8826456 C82.4104555,34.3366456 81.899122,33.6043121 81.509122,32.6856456 C81.119122,31.7669791 80.924122,30.7443121 80.924122,29.6176456 C80.924122,28.5083121 81.119122,27.5029791 81.509122,26.6016456 C81.899122,25.7003121 82.406122,24.9723121 83.030122,24.4176456 C83.654122,23.8629791 84.330122,23.4383121 85.058122,23.1436456 C85.786122,22.8489791 86.5227885,22.7016456 87.268122,22.7016456 Z M87.788122,25.5616456 C86.852122,25.5616456 86.0287885,25.9299791 85.318122,26.6666456 C84.6074555,27.4033121 84.252122,28.3869791 84.252122,29.6176456 C84.252122,30.8656456 84.6074555,31.8579791 85.318122,32.5946456 C86.0287885,33.3313121 86.852122,33.6996456 87.788122,33.6996456 C88.724122,33.6996456 89.5214555,33.3573121 90.180122,32.6726456 C90.8387885,31.9879791 91.168122,30.9696456 91.168122,29.6176456 C91.168122,28.2309791 90.843122,27.2083121 90.193122,26.5496456 C89.543122,25.8909791 88.7414555,25.5616456 87.788122,25.5616456 Z M105.178183,22.7276456 C106.582183,22.7276456 107.778183,23.2086456 108.766183,24.1706456 C109.754183,25.1326456 110.248183,26.6016456 110.248183,28.5776456 L110.248183,36.3776456 L106.920183,36.3776456 L106.920183,28.7856456 C106.920183,26.6536456 106.09685,25.5876456 104.450183,25.5876456 C103.427516,25.5876456 102.565183,25.9733121 101.863183,26.7446456 C101.161183,27.5159791 100.758183,28.1876456 100.654183,28.7596456 L100.654183,36.3776456 L97.326183,36.3776456 L97.326183,22.8576456 L100.654183,22.8576456 L100.654183,25.5616456 C100.723516,25.0069791 101.178516,24.3959791 102.019183,23.7286456 C102.85985,23.0613121 103.91285,22.7276456 105.178183,22.7276456 Z" id="plan" fill="#FFFFFF" fill-rule="nonzero"></path>
                    <polygon id="Path" stroke="#FFFFFF" transform="translate(31.437076, 27.866000) scale(1, -1) translate(-31.437076, -27.866000) " points="0 -2.84217094e-14 0 55.7320009 62.8741523 55.7320009 43 -2.84217094e-14"></polygon>
                </g>
            </g>
        </g>
    </g>
</svg>