<svg xmlns="http://www.w3.org/2000/svg" width="18" height="25" viewBox="0 0 18 25"><g><g><g><path d="M18 10.784a.776.776 0 0 0-.768-.784.776.776 0 0 0-.769.784c0 4.197-3.348 7.611-7.463 7.611s-7.463-3.414-7.463-7.611A.776.776 0 0 0 .769 10a.776.776 0 0 0-.769.784c0 4.797 3.627 8.746 8.232 9.145v3.503H6.53a.776.776 0 0 0-.769.784c0 .433.344.784.769.784h4.939c.424 0 .768-.35.768-.784a.776.776 0 0 0-.768-.784H9.769V19.93C14.373 19.53 18 15.581 18 10.784z"/></g><g><path d="M9.005 14.506a2.484 2.484 0 0 1-2.491-2.471v-8.06a2.484 2.484 0 0 1 2.491-2.471 2.484 2.484 0 0 1 2.491 2.471v8.06a2.484 2.484 0 0 1-2.491 2.471zM9 0C6.794 0 5 1.782 5 3.973v8.054C5 14.217 6.794 16 9 16s4-1.782 4-3.973V3.973C13 1.783 11.206 0 9 0z"/></g></g></g></svg>