<svg xmlns="http://www.w3.org/2000/svg" width="31" height="25" viewBox="0 0 31 25"><g><g><g><path fill="#030104" d="M27.9 8.904a1.09 1.09 0 0 0-1.085-1.094 1.09 1.09 0 0 0-1.085 1.094 1.09 1.09 0 0 0 1.085 1.094c.6 0 1.085-.49 1.085-1.094zm-4.65 5.159c0-4.315-3.47-7.813-7.75-7.813-4.28 0-7.75 3.498-7.75 7.813 0 4.314 3.47 7.812 7.75 7.812 4.28 0 7.75-3.498 7.75-7.813zM31 7.813v14.062C31 23.594 29.605 25 27.9 25H3.1C1.395 25 0 23.594 0 21.875V7.812c0-1.718 1.395-3.125 3.1-3.125h3.72c.511 0 1.062-.4 1.224-.889L9.006.89C9.167.4 9.718 0 10.23 0h10.54c.511 0 1.062.4 1.224.89l.962 2.908c.161.49.712.89 1.224.89h3.72c1.705 0 3.1 1.406 3.1 3.125zm-10.85 6.245c0 2.586-2.082 4.682-4.65 4.682-2.568 0-4.65-2.096-4.65-4.682 0-2.586 2.082-4.683 4.65-4.683 2.568 0 4.65 2.097 4.65 4.683z"/></g></g></g></svg>