<svg xmlns="http://www.w3.org/2000/svg" width="18" height="18" viewBox="0 0 18 18"><g><g><path fill="#fff" d="M16.893 16.38a.363.363 0 1 1-.514.514l-3.854-3.855a6.873 6.873 0 0 1-4.616 1.78 6.909 6.909 0 1 1 6.91-6.91 6.873 6.873 0 0 1-1.78 4.616l3.854 3.854M7.91 14.091a6.182 6.182 0 1 0 0-12.364 6.182 6.182 0 0 0 0 12.364"/><path fill="none" stroke="#fff" stroke-miterlimit="50" stroke-width=".6" d="M16.893 16.38a.363.363 0 1 1-.514.514l-3.854-3.855a6.873 6.873 0 0 1-4.616 1.78 6.909 6.909 0 1 1 6.91-6.91 6.873 6.873 0 0 1-1.78 4.616l3.854 3.854M7.91 14.091a6.182 6.182 0 1 0 0-12.364 6.182 6.182 0 0 0 0 12.364"/></g></g></svg>