<svg xmlns="http://www.w3.org/2000/svg" width="20" height="21" viewBox="0 0 20 21"><g><g><g><path d="M18.767 11.481l-1.753.292a.56.56 0 0 0-.45.414 6.686 6.686 0 0 1-.727 1.75.565.565 0 0 0 .025.613l1.031 1.453a.114.114 0 0 1-.013.142l-1.243 1.244a.106.106 0 0 1-.08.034.102.102 0 0 1-.062-.021l-1.448-1.031a.564.564 0 0 0-.613-.025 6.678 6.678 0 0 1-1.749.726.554.554 0 0 0-.413.451l-.296 1.754a.108.108 0 0 1-.109.091H9.11a.108.108 0 0 1-.108-.091l-.292-1.754a.56.56 0 0 0-.413-.451 6.934 6.934 0 0 1-1.711-.701.577.577 0 0 0-.284-.076.55.55 0 0 0-.326.105l-1.46 1.04a.124.124 0 0 1-.063.02.112.112 0 0 1-.079-.033L3.13 16.183a.113.113 0 0 1-.012-.142l1.026-1.44a.572.572 0 0 0 .025-.619 6.623 6.623 0 0 1-.734-1.745.572.572 0 0 0-.45-.413l-1.766-.301a.108.108 0 0 1-.092-.109V9.657c0-.055.038-.1.092-.109l1.74-.292c.221-.038.4-.2.455-.418a6.679 6.679 0 0 1 .714-1.753.558.558 0 0 0-.03-.61L3.06 5.014a.114.114 0 0 1 .013-.142l1.244-1.245a.106.106 0 0 1 .079-.033c.025 0 .046.008.062.02l1.44 1.028c.184.13.426.138.618.025a6.615 6.615 0 0 1 1.744-.735.572.572 0 0 0 .413-.45l.3-1.767a.108.108 0 0 1 .11-.092h1.756c.054 0 .1.038.108.092l.293 1.741c.037.221.2.401.417.455.63.159 1.23.405 1.79.735.192.113.43.105.614-.025l1.44-1.035a.124.124 0 0 1 .062-.021c.017 0 .05.004.08.033l1.243 1.244a.113.113 0 0 1 .012.142l-1.03 1.45a.564.564 0 0 0-.026.613c.326.547.568 1.136.727 1.75.054.217.233.38.45.413l1.753.296a.108.108 0 0 1 .092.109v1.758h-.005c0 .054-.037.1-.091.108zm.198-3.085l-1.403-.238a7.921 7.921 0 0 0-.564-1.362l.827-1.156a1.231 1.231 0 0 0-.134-1.59l-1.244-1.245a1.226 1.226 0 0 0-1.587-.134l-1.16.827a7.839 7.839 0 0 0-1.412-.58l-.234-1.387A1.233 1.233 0 0 0 10.835.5H9.077c-.605 0-1.119.434-1.219 1.031l-.242 1.42a7.727 7.727 0 0 0-1.357.572L5.11 2.696c-.21-.15-.46-.23-.719-.23-.33 0-.643.13-.872.364L2.27 4.074a1.236 1.236 0 0 0-.133 1.59l.835 1.174c-.23.439-.413.894-.555 1.366l-1.387.233C.434 8.537 0 9.051 0 9.657v1.757c0 .606.434 1.12 1.031 1.22l1.42.242c.146.467.338.923.572 1.357L2.2 15.377a1.231 1.231 0 0 0 .134 1.59l1.244 1.245a1.226 1.226 0 0 0 1.587.134l1.173-.836a7.9 7.9 0 0 0 1.32.543l.233 1.403c.1.597.614 1.031 1.22 1.031h1.762c.605 0 1.119-.434 1.219-1.03l.238-1.404a7.921 7.921 0 0 0 1.361-.563l1.157.826c.208.15.459.23.718.23.33 0 .639-.13.872-.363l1.245-1.245a1.236 1.236 0 0 0 .133-1.59l-.826-1.161c.23-.439.421-.894.563-1.361l1.403-.234a1.233 1.233 0 0 0 1.031-1.22V9.616a1.219 1.219 0 0 0-1.022-1.22z"/></g><g><path d="M9.993 13.68a3.189 3.189 0 0 1-3.186-3.187 3.189 3.189 0 0 1 3.186-3.187 3.189 3.189 0 0 1 3.186 3.187 3.189 3.189 0 0 1-3.186 3.187zm0-7.5a4.316 4.316 0 0 0-4.313 4.313 4.316 4.316 0 0 0 4.313 4.313 4.316 4.316 0 0 0 4.313-4.313A4.316 4.316 0 0 0 9.993 6.18z"/></g></g></g></svg>