<?xml version="1.0" encoding="UTF-8"?>
<svg width="18px" height="18px" viewBox="0 0 18 18" version="1.1" xmlns="http://www.w3.org/2000/svg" xmlns:xlink="http://www.w3.org/1999/xlink">
    <!-- Generator: Sketch 57.1 (83088) - https://sketch.com -->
    <title>settings (3) copy 3</title>
    <desc>Created with Sketch.</desc>
    <g id="Page-1" stroke="none" stroke-width="1" fill="none" fill-rule="evenodd">
        <g id="settings-(3)-copy-3" fill="#FFFFFF" fill-rule="nonzero">
            <path d="M17.0785554,7.11050762 L15.8151484,6.89617715 C15.6835435,6.47127637 15.5143372,6.06141634 15.3075295,5.67035722 L16.0520372,4.6287863 C16.367889,4.1850846 16.3190072,3.57969501 15.9317128,3.19615626 L14.8111911,2.07562147 C14.6006232,1.86505118 14.3223729,1.74848548 14.0253218,1.74848548 C13.7921932,1.74848548 13.5703449,1.81992897 13.3823379,1.95529559 L12.337019,2.69981199 C11.9309239,2.48548151 11.5060281,2.30875287 11.0660917,2.17714644 L10.8555239,0.928765406 C10.7652805,0.391059118 10.3027833,0 9.75756305,0 L8.17454415,0 C7.62932386,0 7.16682665,0.391059118 7.0765833,0.928765406 L6.85849518,2.20722791 C6.43735951,2.33883434 6.02750426,2.5118028 5.63644971,2.72237309 L4.60241124,1.9778567 C4.41440425,1.84249008 4.18879585,1.77104658 3.95566718,1.77104658 C3.65861613,1.77104658 3.37660563,1.88761228 3.16979794,2.09818258 L2.04551611,3.21871736 C1.66198184,3.60225611 1.60933988,4.20764571 1.92519163,4.6513474 L2.67721961,5.70795906 C2.47041192,6.10277836 2.30496576,6.5126384 2.177121,6.93753917 L0.928754556,7.14810946 C0.39105455,7.23835388 0,7.70085649 0,8.24608314 L0,9.82912053 C0,10.3743472 0.39105455,10.8368498 0.928754556,10.9270942 L2.20720212,11.1451849 C2.33880702,11.5663255 2.51177346,11.9761855 2.72234129,12.3672446 L1.98159373,13.397535 C1.66574198,13.8412367 1.7146238,14.4466263 2.10191821,14.830165 L3.2224399,15.9506998 C3.43300773,16.1612701 3.71125808,16.2778358 4.00830914,16.2778358 C4.24143781,16.2778358 4.46328606,16.2063923 4.65129306,16.0710257 L5.70789237,15.3189889 C6.0876665,15.5182787 6.48624133,15.6799666 6.89609658,15.8078128 L7.10666442,17.0712346 C7.19690777,17.6089409 7.65940498,18 8.20462527,18 L9.79140431,18 C10.3366246,18 10.7991218,17.6089409 10.8893652,17.0712346 L11.1036931,15.8078128 C11.5285889,15.6762064 11.9384442,15.5069981 12.3294987,15.300188 L13.3710575,16.0447044 C13.5590645,16.180071 13.7846729,16.2515145 14.0178016,16.2515145 L14.0178016,16.2515145 C14.3148526,16.2515145 14.593103,16.1349488 14.8036708,15.9243785 L15.9241925,14.8038437 C16.3077268,14.420305 16.3603687,13.8149154 16.044517,13.3712137 L15.3000093,12.3258826 C15.506817,11.9310633 15.6797834,11.5212033 15.8076282,11.1000627 L17.0710352,10.8894924 C17.6087352,10.799248 17.9998963,10.3367454 17.9998963,9.7915187 L17.9998963,8.2084813 C18.00731,7.66325465 17.6162554,7.20075204 17.0785554,7.11050762 Z M16.9920722,9.7915187 C16.9920722,9.84040109 16.958231,9.88176311 16.9093491,9.88928348 L15.3300904,10.1524963 C15.130803,10.186338 14.9728771,10.3329852 14.9239953,10.5247545 C14.78111,11.0775016 14.5630218,11.6076875 14.2697309,12.1002716 C14.1682072,12.27324 14.1757274,12.4875705 14.2922918,12.6530186 L15.2210463,13.9615626 C15.2473673,13.9991644 15.2436072,14.0555672 15.2097659,14.0894088 L14.0892442,15.2099436 C14.0629232,15.2362649 14.0366023,15.2400251 14.0178016,15.2400251 C13.9952407,15.2400251 13.97644,15.2325047 13.9613995,15.2212241 L12.6566309,14.2924587 C12.4949449,14.175893 12.2768568,14.1683727 12.1038903,14.2698976 C11.611312,14.563192 11.0811323,14.7812826 10.5283917,14.9241696 C10.3328645,14.973052 10.186219,15.1347399 10.1561379,15.3302695 L9.88916794,16.9095467 C9.88164766,16.9584291 9.84028613,16.9922707 9.79140431,16.9922707 L8.20838541,16.9922707 C8.15950359,16.9922707 8.11814205,16.9584291 8.11062177,16.9095467 L7.84741198,15.3302695 C7.81357072,15.1309797 7.66692526,14.973052 7.47515813,14.9241696 C6.93745812,14.7850428 6.41855881,14.5707123 5.93350077,14.2924587 C5.85453783,14.2473365 5.76429447,14.2247754 5.67781125,14.2247754 C5.57628748,14.2247754 5.47100356,14.2548569 5.38452034,14.31878 L4.06847137,15.2550658 C4.04967068,15.2663464 4.03086998,15.2738667 4.01206928,15.2738667 C3.99702872,15.2738667 3.9669476,15.2701065 3.94062662,15.2437853 L2.82010493,14.1232505 C2.78626367,14.0894088 2.78250353,14.0367662 2.80882451,13.9954042 L3.73381892,12.6981408 C3.85038326,12.5326927 3.85790354,12.314602 3.75637976,12.1416336 C3.46308885,11.6528097 3.23748046,11.1226238 3.09459514,10.5698767 C3.04195318,10.3781074 2.88402731,10.2314602 2.68850003,10.1976186 L1.09796085,9.92688531 C1.04907903,9.91936495 1.01523777,9.87800292 1.01523777,9.82912053 L1.01523777,8.24608314 C1.01523777,8.19720075 1.04907903,8.15583873 1.09796085,8.14831836 L2.66593919,7.88510549 C2.86522661,7.85126384 3.02691262,7.70461667 3.07579444,7.50908711 C3.21491962,6.95634009 3.42924759,6.42239398 3.71877836,5.9298099 C3.82030214,5.75684145 3.80902172,5.54251097 3.69245738,5.38082306 L2.75618255,4.06475872 C2.72986157,4.02715688 2.73362171,3.97075413 2.76746297,3.93691247 L3.88798466,2.81637769 C3.91430564,2.7900564 3.94062662,2.78629622 3.95942732,2.78629622 C3.98198816,2.78629622 4.00078886,2.79381659 4.01582942,2.80509714 L5.31307768,3.73010236 C5.47852384,3.84666806 5.69661195,3.85418843 5.86957839,3.75266346 C6.35839658,3.45936912 6.8885763,3.23375809 7.44131687,3.09087111 C7.633084,3.03822854 7.77972946,2.88030081 7.81357072,2.68477126 L8.08430079,1.09421349 C8.09182107,1.04533111 8.13318261,1.01148945 8.18206443,1.01148945 L9.76508333,1.01148945 C9.81396515,1.01148945 9.85532669,1.04533111 9.86284696,1.09421349 L10.1260568,2.66221015 C10.159898,2.8614999 10.3065435,3.0231878 10.5020707,3.07207019 C11.0698519,3.21495718 11.611312,3.43680802 12.1151708,3.73386254 C12.2881372,3.83538751 12.5024652,3.82786714 12.6679113,3.71130144 L13.9651596,2.77877585 C13.9839603,2.7674953 14.002761,2.75997493 14.0215617,2.75997493 C14.0366023,2.75997493 14.0666834,2.76373512 14.0930044,2.7900564 L15.213526,3.91059118 C15.2473673,3.94443284 15.2511274,3.99707541 15.2248065,4.03843743 L14.2960519,5.34322122 C14.1794876,5.50490913 14.1719673,5.72299979 14.2734911,5.89596825 C14.566782,6.38855233 14.7848701,6.91873825 14.9277554,7.47148527 C14.9766372,7.66701483 15.1383232,7.813662 15.3338505,7.84374347 L16.9131093,8.11071652 C16.9619911,8.11823689 16.9958324,8.15959891 16.9958324,8.2084813 L16.9958324,9.7915187 L16.9920722,9.7915187 L16.9920722,9.7915187 Z" id="Shape"></path>
            <path d="M9,5 C6.7928364,5 5,6.7928364 5,9 C5,11.2071636 6.7928364,13 9,13 C11.2071636,13 13,11.2071636 13,9 C13,6.7928364 11.2071636,5 9,5 Z M9,11.9545015 C7.36979671,11.9545015 6.04549855,10.6302033 6.04549855,9 C6.04549855,7.36979671 7.36979671,6.04549855 9,6.04549855 C10.6302033,6.04549855 11.9545015,7.36979671 11.9545015,9 C11.9545015,10.6302033 10.6302033,11.9545015 9,11.9545015 Z" id="Shape"></path>
        </g>
    </g>
</svg>