<svg xmlns="http://www.w3.org/2000/svg" width="24" height="20" viewBox="0 0 24 20"><g><g><path fill="#62676e" d="M24 2.368a9.659 9.659 0 0 1-2.828.795A5.043 5.043 0 0 0 23.337.37a9.728 9.728 0 0 1-3.127 1.225A4.861 4.861 0 0 0 16.616 0c-2.72 0-4.924 2.261-4.924 5.049 0 .396.043.781.128 1.151C7.727 5.99 4.1 3.98 1.671.924a5.127 5.127 0 0 0-.667 2.539 5.08 5.08 0 0 0 2.19 4.202 4.807 4.807 0 0 1-2.23-.631v.063c0 2.446 1.697 4.487 3.95 4.951a4.818 4.818 0 0 1-2.224.087c.626 2.006 2.445 3.465 4.6 3.506A9.725 9.725 0 0 1 0 17.731 13.684 13.684 0 0 0 7.547 20c9.058 0 14.01-7.694 14.01-14.365 0-.22-.004-.437-.014-.654A10.143 10.143 0 0 0 24 2.368"/></g></g></svg>